<mxfile host="app.diagrams.net" modified="2020-12-28T15:47:54.345Z" agent="5.0 (X11)" etag="i0ALIfjnhiAhmnxcSjd8" version="14.0.1" type="github">
  <diagram id="McFuwWpEo0uLamNHG9X3" name="Page-1">
    <mxGraphModel dx="1216" dy="767" grid="1" gridSize="10" guides="1" tooltips="1" connect="1" arrows="1" fold="1" page="1" pageScale="1" pageWidth="850" pageHeight="1100" math="0" shadow="0">
      <root>
        <mxCell id="0" />
        <mxCell id="1" parent="0" />
        <mxCell id="LUOb0yNZu1IP1j2HMpDN-12" value="" style="whiteSpace=wrap;html=1;aspect=fixed;" vertex="1" parent="1">
          <mxGeometry x="440" y="160" width="80" height="80" as="geometry" />
        </mxCell>
        <mxCell id="LUOb0yNZu1IP1j2HMpDN-26" value="" style="whiteSpace=wrap;html=1;aspect=fixed;" vertex="1" parent="1">
          <mxGeometry x="440" y="240" width="80" height="80" as="geometry" />
        </mxCell>
        <mxCell id="LUOb0yNZu1IP1j2HMpDN-27" value="" style="whiteSpace=wrap;html=1;aspect=fixed;" vertex="1" parent="1">
          <mxGeometry x="520" y="240" width="80" height="80" as="geometry" />
        </mxCell>
        <mxCell id="LUOb0yNZu1IP1j2HMpDN-1" value="" style="whiteSpace=wrap;html=1;aspect=fixed;" vertex="1" parent="1">
          <mxGeometry x="200" y="240" width="80" height="80" as="geometry" />
        </mxCell>
        <mxCell id="LUOb0yNZu1IP1j2HMpDN-2" value="1/0/1" style="text;html=1;strokeColor=none;fillColor=none;align=center;verticalAlign=middle;whiteSpace=wrap;rounded=0;" vertex="1" parent="1">
          <mxGeometry x="160" y="230" width="40" height="20" as="geometry" />
        </mxCell>
        <mxCell id="LUOb0yNZu1IP1j2HMpDN-3" value="1/0/2" style="text;html=1;strokeColor=none;fillColor=none;align=center;verticalAlign=middle;whiteSpace=wrap;rounded=0;" vertex="1" parent="1">
          <mxGeometry x="160" y="310" width="40" height="20" as="geometry" />
        </mxCell>
        <mxCell id="LUOb0yNZu1IP1j2HMpDN-4" value="2/0/2" style="text;html=1;strokeColor=none;fillColor=none;align=center;verticalAlign=middle;whiteSpace=wrap;rounded=0;" vertex="1" parent="1">
          <mxGeometry x="240" y="310" width="40" height="20" as="geometry" />
        </mxCell>
        <mxCell id="LUOb0yNZu1IP1j2HMpDN-5" value="2/0/1" style="text;html=1;strokeColor=none;fillColor=none;align=center;verticalAlign=middle;whiteSpace=wrap;rounded=0;" vertex="1" parent="1">
          <mxGeometry x="240" y="230" width="40" height="20" as="geometry" />
        </mxCell>
        <mxCell id="LUOb0yNZu1IP1j2HMpDN-6" value="" style="endArrow=none;dashed=1;html=1;" edge="1" parent="1">
          <mxGeometry width="50" height="50" relative="1" as="geometry">
            <mxPoint x="239" y="430" as="sourcePoint" />
            <mxPoint x="239" y="220" as="targetPoint" />
          </mxGeometry>
        </mxCell>
        <mxCell id="LUOb0yNZu1IP1j2HMpDN-8" value="" style="endArrow=none;dashed=1;html=1;" edge="1" parent="1">
          <mxGeometry width="50" height="50" relative="1" as="geometry">
            <mxPoint x="160" y="280" as="sourcePoint" />
            <mxPoint x="320" y="280" as="targetPoint" />
          </mxGeometry>
        </mxCell>
        <mxCell id="LUOb0yNZu1IP1j2HMpDN-7" value="1.5/-0.5/1.5" style="text;html=1;align=center;verticalAlign=middle;whiteSpace=wrap;rounded=0;" vertex="1" parent="1">
          <mxGeometry x="210" y="260" width="60" height="20" as="geometry" />
        </mxCell>
        <mxCell id="LUOb0yNZu1IP1j2HMpDN-11" value="size=1" style="text;html=1;strokeColor=none;fillColor=none;align=center;verticalAlign=middle;whiteSpace=wrap;rounded=0;" vertex="1" parent="1">
          <mxGeometry x="200" y="80" width="40" height="20" as="geometry" />
        </mxCell>
        <mxCell id="LUOb0yNZu1IP1j2HMpDN-14" value="0/0/1" style="text;html=1;strokeColor=none;fillColor=none;align=center;verticalAlign=middle;whiteSpace=wrap;rounded=0;" vertex="1" parent="1">
          <mxGeometry x="400" y="230" width="40" height="20" as="geometry" />
        </mxCell>
        <mxCell id="LUOb0yNZu1IP1j2HMpDN-15" value="1/0/1" style="text;html=1;strokeColor=none;fillColor=none;align=center;verticalAlign=middle;whiteSpace=wrap;rounded=0;" vertex="1" parent="1">
          <mxGeometry x="480" y="230" width="40" height="20" as="geometry" />
        </mxCell>
        <mxCell id="LUOb0yNZu1IP1j2HMpDN-17" value="" style="endArrow=none;dashed=1;html=1;" edge="1" parent="1">
          <mxGeometry width="50" height="50" relative="1" as="geometry">
            <mxPoint x="479" y="350" as="sourcePoint" />
            <mxPoint x="479" y="140" as="targetPoint" />
          </mxGeometry>
        </mxCell>
        <mxCell id="LUOb0yNZu1IP1j2HMpDN-18" value="" style="endArrow=none;dashed=1;html=1;" edge="1" parent="1">
          <mxGeometry width="50" height="50" relative="1" as="geometry">
            <mxPoint x="400" y="200" as="sourcePoint" />
            <mxPoint x="560" y="200" as="targetPoint" />
          </mxGeometry>
        </mxCell>
        <mxCell id="LUOb0yNZu1IP1j2HMpDN-19" value="0.5/-0.5/0.5" style="text;html=1;align=center;verticalAlign=middle;whiteSpace=wrap;rounded=0;" vertex="1" parent="1">
          <mxGeometry x="450" y="180" width="60" height="20" as="geometry" />
        </mxCell>
        <mxCell id="LUOb0yNZu1IP1j2HMpDN-20" value="size=2" style="text;html=1;strokeColor=none;fillColor=none;align=center;verticalAlign=middle;whiteSpace=wrap;rounded=0;" vertex="1" parent="1">
          <mxGeometry x="540" y="80" width="40" height="20" as="geometry" />
        </mxCell>
        <mxCell id="LUOb0yNZu1IP1j2HMpDN-21" value="" style="endArrow=none;html=1;" edge="1" parent="1">
          <mxGeometry width="50" height="50" relative="1" as="geometry">
            <mxPoint x="120" y="470" as="sourcePoint" />
            <mxPoint x="120" y="130" as="targetPoint" />
          </mxGeometry>
        </mxCell>
        <mxCell id="LUOb0yNZu1IP1j2HMpDN-22" value="" style="endArrow=none;html=1;" edge="1" parent="1">
          <mxGeometry width="50" height="50" relative="1" as="geometry">
            <mxPoint x="220" y="159" as="sourcePoint" />
            <mxPoint x="60" y="159" as="targetPoint" />
          </mxGeometry>
        </mxCell>
        <mxCell id="LUOb0yNZu1IP1j2HMpDN-23" value="" style="endArrow=none;html=1;" edge="1" parent="1">
          <mxGeometry width="50" height="50" relative="1" as="geometry">
            <mxPoint x="440" y="470" as="sourcePoint" />
            <mxPoint x="440" y="130" as="targetPoint" />
          </mxGeometry>
        </mxCell>
        <mxCell id="LUOb0yNZu1IP1j2HMpDN-24" value="" style="endArrow=none;html=1;" edge="1" parent="1" source="LUOb0yNZu1IP1j2HMpDN-13">
          <mxGeometry width="50" height="50" relative="1" as="geometry">
            <mxPoint x="540" y="159" as="sourcePoint" />
            <mxPoint x="380" y="159" as="targetPoint" />
          </mxGeometry>
        </mxCell>
        <mxCell id="LUOb0yNZu1IP1j2HMpDN-25" value="" style="whiteSpace=wrap;html=1;aspect=fixed;" vertex="1" parent="1">
          <mxGeometry x="520" y="160" width="80" height="80" as="geometry" />
        </mxCell>
        <mxCell id="LUOb0yNZu1IP1j2HMpDN-13" value="0/0/0" style="text;html=1;strokeColor=none;fillColor=none;align=center;verticalAlign=middle;whiteSpace=wrap;rounded=0;" vertex="1" parent="1">
          <mxGeometry x="400" y="150" width="40" height="20" as="geometry" />
        </mxCell>
        <mxCell id="LUOb0yNZu1IP1j2HMpDN-28" value="" style="endArrow=none;html=1;" edge="1" parent="1" source="LUOb0yNZu1IP1j2HMpDN-16" target="LUOb0yNZu1IP1j2HMpDN-13">
          <mxGeometry width="50" height="50" relative="1" as="geometry">
            <mxPoint x="540" y="159" as="sourcePoint" />
            <mxPoint x="380" y="159" as="targetPoint" />
          </mxGeometry>
        </mxCell>
        <mxCell id="LUOb0yNZu1IP1j2HMpDN-16" value="1/0/0" style="text;html=1;strokeColor=none;fillColor=none;align=center;verticalAlign=middle;whiteSpace=wrap;rounded=0;" vertex="1" parent="1">
          <mxGeometry x="480" y="150" width="40" height="20" as="geometry" />
        </mxCell>
        <mxCell id="LUOb0yNZu1IP1j2HMpDN-29" value="" style="endArrow=none;html=1;" edge="1" parent="1" target="LUOb0yNZu1IP1j2HMpDN-16">
          <mxGeometry width="50" height="50" relative="1" as="geometry">
            <mxPoint x="540" y="159" as="sourcePoint" />
            <mxPoint x="440" y="159.83333333333337" as="targetPoint" />
          </mxGeometry>
        </mxCell>
        <mxCell id="LUOb0yNZu1IP1j2HMpDN-30" value="2/0/1" style="text;html=1;strokeColor=none;fillColor=none;align=center;verticalAlign=middle;whiteSpace=wrap;rounded=0;" vertex="1" parent="1">
          <mxGeometry x="560" y="230" width="40" height="20" as="geometry" />
        </mxCell>
        <mxCell id="LUOb0yNZu1IP1j2HMpDN-32" value="2/0/0" style="text;html=1;strokeColor=none;fillColor=none;align=center;verticalAlign=middle;whiteSpace=wrap;rounded=0;" vertex="1" parent="1">
          <mxGeometry x="560" y="150" width="40" height="20" as="geometry" />
        </mxCell>
        <mxCell id="LUOb0yNZu1IP1j2HMpDN-33" value="1.5/-0.5/0.5" style="text;html=1;align=center;verticalAlign=middle;whiteSpace=wrap;rounded=0;" vertex="1" parent="1">
          <mxGeometry x="530" y="180" width="60" height="20" as="geometry" />
        </mxCell>
        <mxCell id="LUOb0yNZu1IP1j2HMpDN-34" value="0.5/-0.5/1.5" style="text;html=1;align=center;verticalAlign=middle;whiteSpace=wrap;rounded=0;" vertex="1" parent="1">
          <mxGeometry x="450" y="270" width="60" height="20" as="geometry" />
        </mxCell>
        <mxCell id="LUOb0yNZu1IP1j2HMpDN-35" value="1.5/-0.5/1.5" style="text;html=1;align=center;verticalAlign=middle;whiteSpace=wrap;rounded=0;" vertex="1" parent="1">
          <mxGeometry x="530" y="270" width="60" height="20" as="geometry" />
        </mxCell>
        <mxCell id="LUOb0yNZu1IP1j2HMpDN-36" value="" style="whiteSpace=wrap;html=1;aspect=fixed;strokeColor=#6c8ebf;fillColor=none;" vertex="1" parent="1">
          <mxGeometry x="120" y="560" width="320" height="320" as="geometry" />
        </mxCell>
        <mxCell id="LUOb0yNZu1IP1j2HMpDN-44" value="size=8" style="text;html=1;strokeColor=none;fillColor=none;align=center;verticalAlign=middle;whiteSpace=wrap;rounded=0;" vertex="1" parent="1">
          <mxGeometry x="340" y="480" width="40" height="20" as="geometry" />
        </mxCell>
        <mxCell id="LUOb0yNZu1IP1j2HMpDN-48" value="-3.0/0.0/-3.0" style="text;html=1;strokeColor=none;fillColor=none;align=center;verticalAlign=middle;whiteSpace=wrap;rounded=0;" vertex="1" parent="1">
          <mxGeometry x="60" y="550" width="40" height="20" as="geometry" />
        </mxCell>
        <mxCell id="LUOb0yNZu1IP1j2HMpDN-60" value="-3.0/0.0/0.0" style="text;html=1;strokeColor=none;fillColor=none;align=center;verticalAlign=middle;whiteSpace=wrap;rounded=0;" vertex="1" parent="1">
          <mxGeometry x="60" y="790" width="40" height="20" as="geometry" />
        </mxCell>
        <mxCell id="LUOb0yNZu1IP1j2HMpDN-61" value="-3.0/0.0/-3.0" style="text;html=1;strokeColor=none;fillColor=none;align=center;verticalAlign=middle;whiteSpace=wrap;rounded=0;" vertex="1" parent="1">
          <mxGeometry x="60" y="1030" width="40" height="20" as="geometry" />
        </mxCell>
        <mxCell id="LUOb0yNZu1IP1j2HMpDN-62" value="1.0/-0.5/1.0" style="text;html=1;strokeColor=none;fillColor=none;align=center;verticalAlign=middle;whiteSpace=wrap;rounded=0;" vertex="1" parent="1">
          <mxGeometry x="425" y="870" width="40" height="20" as="geometry" />
        </mxCell>
        <mxCell id="LUOb0yNZu1IP1j2HMpDN-66" value="" style="whiteSpace=wrap;html=1;aspect=fixed;strokeColor=#d79b00;fillColor=none;" vertex="1" parent="1">
          <mxGeometry x="120" y="880" width="320" height="320" as="geometry" />
        </mxCell>
        <mxCell id="LUOb0yNZu1IP1j2HMpDN-67" value="" style="whiteSpace=wrap;html=1;aspect=fixed;strokeColor=#82b366;fillColor=none;" vertex="1" parent="1">
          <mxGeometry x="440" y="560" width="320" height="320" as="geometry" />
        </mxCell>
        <mxCell id="LUOb0yNZu1IP1j2HMpDN-68" value="" style="whiteSpace=wrap;html=1;aspect=fixed;strokeColor=#9673a6;fillColor=none;" vertex="1" parent="1">
          <mxGeometry x="440" y="880" width="320" height="320" as="geometry" />
        </mxCell>
        <mxCell id="LUOb0yNZu1IP1j2HMpDN-46" value="" style="endArrow=none;html=1;startArrow=classic;startFill=1;" edge="1" parent="1">
          <mxGeometry width="50" height="50" relative="1" as="geometry">
            <mxPoint x="990" y="800" as="sourcePoint" />
            <mxPoint x="20" y="800" as="targetPoint" />
          </mxGeometry>
        </mxCell>
        <mxCell id="LUOb0yNZu1IP1j2HMpDN-65" value="" style="endArrow=none;html=1;startArrow=classic;startFill=1;" edge="1" parent="1">
          <mxGeometry width="50" height="50" relative="1" as="geometry">
            <mxPoint x="360" y="1290" as="sourcePoint" />
            <mxPoint x="360" y="520" as="targetPoint" />
          </mxGeometry>
        </mxCell>
        <mxCell id="LUOb0yNZu1IP1j2HMpDN-69" value="" style="whiteSpace=wrap;html=1;aspect=fixed;strokeColor=#6c8ebf;fillColor=#dae8fc;sketch=1;" vertex="1" parent="1">
          <mxGeometry x="120" y="560" width="160" height="160" as="geometry" />
        </mxCell>
        <mxCell id="LUOb0yNZu1IP1j2HMpDN-70" value="" style="whiteSpace=wrap;html=1;aspect=fixed;strokeColor=#82b366;fillColor=#d5e8d4;sketch=1;" vertex="1" parent="1">
          <mxGeometry x="280" y="560" width="160" height="160" as="geometry" />
        </mxCell>
        <mxCell id="LUOb0yNZu1IP1j2HMpDN-71" value="" style="whiteSpace=wrap;html=1;aspect=fixed;strokeColor=#d79b00;fillColor=#ffe6cc;sketch=1;" vertex="1" parent="1">
          <mxGeometry x="120" y="720" width="160" height="160" as="geometry" />
        </mxCell>
        <mxCell id="LUOb0yNZu1IP1j2HMpDN-72" value="" style="whiteSpace=wrap;html=1;aspect=fixed;strokeColor=#9673a6;fillColor=#e1d5e7;glass=0;rounded=0;shadow=0;sketch=1;" vertex="1" parent="1">
          <mxGeometry x="280" y="720" width="160" height="160" as="geometry" />
        </mxCell>
        <mxCell id="LUOb0yNZu1IP1j2HMpDN-73" value="-1.0/-0.5/-1.0" style="text;html=1;strokeColor=none;fillColor=none;align=center;verticalAlign=middle;whiteSpace=wrap;rounded=0;" vertex="1" parent="1">
          <mxGeometry x="260" y="710" width="40" height="20" as="geometry" />
        </mxCell>
        <mxCell id="LUOb0yNZu1IP1j2HMpDN-74" value="-2.0/-0.5/-2.0" style="text;html=1;strokeColor=none;fillColor=none;align=center;verticalAlign=middle;whiteSpace=wrap;rounded=0;" vertex="1" parent="1">
          <mxGeometry x="180" y="630" width="40" height="20" as="geometry" />
        </mxCell>
        <mxCell id="LUOb0yNZu1IP1j2HMpDN-75" value="-2.5/-0.5/-2.5" style="text;html=1;strokeColor=none;fillColor=none;align=center;verticalAlign=middle;whiteSpace=wrap;rounded=0;" vertex="1" parent="1">
          <mxGeometry x="140" y="590" width="40" height="20" as="geometry" />
        </mxCell>
      </root>
    </mxGraphModel>
  </diagram>
</mxfile>
